<svg aria-labelledby="chart-title-my-svg" aria-roledescription="er" role="graphics-document document" viewBox="0 0 344.1902770996094 272" style="max-width: 344.19px; background-color: transparent;" xmlns:xlink="http://www.w3.org/1999/xlink" xmlns="http://www.w3.org/2000/svg" width="100%" id="my-svg"><title id="chart-title-my-svg">Many to many relationship schema</title><style>#my-svg{font-family:"trebuchet ms",verdana,arial,sans-serif;font-size:16px;fill:#000000;}#my-svg .error-icon{fill:#552222;}#my-svg .error-text{fill:#552222;stroke:#552222;}#my-svg .edge-thickness-normal{stroke-width:2px;}#my-svg .edge-thickness-thick{stroke-width:3.5px;}#my-svg .edge-pattern-solid{stroke-dasharray:0;}#my-svg .edge-pattern-dashed{stroke-dasharray:3;}#my-svg .edge-pattern-dotted{stroke-dasharray:2;}#my-svg .marker{fill:#666;stroke:#666;}#my-svg .marker.cross{stroke:#666;}#my-svg svg{font-family:"trebuchet ms",verdana,arial,sans-serif;font-size:16px;}#my-svg .entityBox{fill:#eee;stroke:#999;}#my-svg .attributeBoxOdd{fill:#ffffff;stroke:#999;}#my-svg .attributeBoxEven{fill:#f2f2f2;stroke:#999;}#my-svg .relationshipLabelBox{fill:hsl(-160, 0%, 93.3333333333%);opacity:0.7;background-color:hsl(-160, 0%, 93.3333333333%);}#my-svg .relationshipLabelBox rect{opacity:0.5;}#my-svg .relationshipLine{stroke:#666;}#my-svg .entityTitleText{text-anchor:middle;font-size:18px;fill:#000000;}#my-svg #MD_PARENT_START{fill:#f5f5f5!important;stroke:#666!important;stroke-width:1;}#my-svg #MD_PARENT_END{fill:#f5f5f5!important;stroke:#666!important;stroke-width:1;}#my-svg :root{--mermaid-font-family:"trebuchet ms",verdana,arial,sans-serif;}</style><g/><defs><marker orient="auto" markerHeight="240" markerWidth="190" refY="7" refX="0" id="MD_PARENT_START"><path d="M 18,7 L9,13 L1,7 L9,1 Z"/></marker></defs><defs><marker orient="auto" markerHeight="28" markerWidth="20" refY="7" refX="19" id="MD_PARENT_END"><path d="M 18,7 L9,13 L1,7 L9,1 Z"/></marker></defs><defs><marker orient="auto" markerHeight="18" markerWidth="18" refY="9" refX="0" id="ONLY_ONE_START"><path d="M9,0 L9,18 M15,0 L15,18" fill="none" stroke="gray"/></marker></defs><defs><marker orient="auto" markerHeight="18" markerWidth="18" refY="9" refX="18" id="ONLY_ONE_END"><path d="M3,0 L3,18 M9,0 L9,18" fill="none" stroke="gray"/></marker></defs><defs><marker orient="auto" markerHeight="18" markerWidth="30" refY="9" refX="0" id="ZERO_OR_ONE_START"><circle r="6" cy="9" cx="21" fill="white" stroke="gray"/><path d="M9,0 L9,18" fill="none" stroke="gray"/></marker></defs><defs><marker orient="auto" markerHeight="18" markerWidth="30" refY="9" refX="30" id="ZERO_OR_ONE_END"><circle r="6" cy="9" cx="9" fill="white" stroke="gray"/><path d="M21,0 L21,18" fill="none" stroke="gray"/></marker></defs><defs><marker orient="auto" markerHeight="36" markerWidth="45" refY="18" refX="18" id="ONE_OR_MORE_START"><path d="M0,18 Q 18,0 36,18 Q 18,36 0,18 M42,9 L42,27" fill="none" stroke="gray"/></marker></defs><defs><marker orient="auto" markerHeight="36" markerWidth="45" refY="18" refX="27" id="ONE_OR_MORE_END"><path d="M3,9 L3,27 M9,18 Q27,0 45,18 Q27,36 9,18" fill="none" stroke="gray"/></marker></defs><defs><marker orient="auto" markerHeight="36" markerWidth="57" refY="18" refX="18" id="ZERO_OR_MORE_START"><circle r="6" cy="18" cx="48" fill="white" stroke="gray"/><path d="M0,18 Q18,0 36,18 Q18,36 0,18" fill="none" stroke="gray"/></marker></defs><defs><marker orient="auto" markerHeight="36" markerWidth="57" refY="18" refX="39" id="ZERO_OR_MORE_END"><circle r="6" cy="18" cx="9" fill="white" stroke="gray"/><path d="M21,18 Q39,0 57,18 Q39,36 21,18" fill="none" stroke="gray"/></marker></defs><path style="stroke: gray; fill: none;" marker-start="url(#ONLY_ONE_START)" marker-end="url(#ZERO_OR_MORE_END)" d="M72.095,86L72.095,94.333C72.095,102.667,72.095,119.333,82.24,136C92.386,152.667,112.676,169.333,122.822,177.667L132.967,186" class="er relationshipLine"/><path style="stroke: gray; fill: none;" marker-start="url(#ONLY_ONE_START)" marker-end="url(#ZERO_OR_MORE_END)" d="M274.19,86L274.19,94.333C274.19,102.667,274.19,119.333,264.045,136C253.9,152.667,233.609,169.333,223.464,177.667L213.318,186" class="er relationshipLine"/><g transform="translate(20,20 )" id="entity-User-818c511a-4a32-5484-ba70-875d765a9175"><rect height="66" width="104.19027709960938" y="0" x="0" class="er entityBox"/><text style="dominant-baseline: middle; text-anchor: middle; font-size: 12px;" transform="translate(52.09513854980469,12)" y="0" x="0" id="text-entity-User-818c511a-4a32-5484-ba70-875d765a9175" class="er entityLabel">User</text><rect height="21" width="44.577423095703125" y="24" x="0" class="er attributeBoxOdd"/><text style="dominant-baseline: middle; font-size: 10.2px;" transform="translate(5,34.5)" y="0" x="0" id="text-entity-User-818c511a-4a32-5484-ba70-875d765a9175-attr-1-type" class="er entityLabel">bigint</text><rect height="21" width="35.81787109375" y="24" x="44.577423095703125" class="er attributeBoxOdd"/><text style="dominant-baseline: middle; font-size: 10.2px;" transform="translate(49.577423095703125,34.5)" y="0" x="0" id="text-entity-User-818c511a-4a32-5484-ba70-875d765a9175-attr-1-name" class="er entityLabel">id</text><rect height="21" width="23.79498291015625" y="24" x="80.39529418945312" class="er attributeBoxOdd"/><text style="dominant-baseline: middle; font-size: 10.2px;" transform="translate(85.39529418945312,34.5)" y="0" x="0" id="text-entity-User-818c511a-4a32-5484-ba70-875d765a9175-attr-1-key" class="er entityLabel">PK</text><rect height="21" width="44.577423095703125" y="45" x="0" class="er attributeBoxEven"/><text style="dominant-baseline: middle; font-size: 10.2px;" transform="translate(5,55.5)" y="0" x="0" id="text-entity-User-818c511a-4a32-5484-ba70-875d765a9175-attr-2-type" class="er entityLabel">varchar</text><rect height="21" width="35.81787109375" y="45" x="44.577423095703125" class="er attributeBoxEven"/><text style="dominant-baseline: middle; font-size: 10.2px;" transform="translate(49.577423095703125,55.5)" y="0" x="0" id="text-entity-User-818c511a-4a32-5484-ba70-875d765a9175-attr-2-name" class="er entityLabel">name</text><rect height="21" width="23.79498291015625" y="45" x="80.39529418945312" class="er attributeBoxEven"/><text style="dominant-baseline: middle; font-size: 10.2px;" transform="translate(85.39529418945312,55.5)" y="0" x="0" id="text-entity-User-818c511a-4a32-5484-ba70-875d765a9175-attr-2-key" class="er entityLabel"/></g><g transform="translate(118.71715545654297,186 )" id="entity-Review-77c92a79-8cff-50c0-9604-f9135763cccd"><rect height="66" width="108.85110473632812" y="0" x="0" class="er entityBox"/><text style="dominant-baseline: middle; text-anchor: middle; font-size: 12px;" transform="translate(54.42555236816406,12)" y="0" x="0" id="text-entity-Review-77c92a79-8cff-50c0-9604-f9135763cccd" class="er entityLabel">Review</text><rect height="21" width="34.524078369140625" y="24" x="0" class="er attributeBoxOdd"/><text style="dominant-baseline: middle; font-size: 10.2px;" transform="translate(5,34.5)" y="0" x="0" id="text-entity-Review-77c92a79-8cff-50c0-9604-f9135763cccd-attr-1-type" class="er entityLabel">bigint</text><rect height="21" width="51.104095458984375" y="24" x="34.524078369140625" class="er attributeBoxOdd"/><text style="dominant-baseline: middle; font-size: 10.2px;" transform="translate(39.524078369140625,34.5)" y="0" x="0" id="text-entity-Review-77c92a79-8cff-50c0-9604-f9135763cccd-attr-1-name" class="er entityLabel">user_id</text><rect height="21" width="23.222930908203125" y="24" x="85.628173828125" class="er attributeBoxOdd"/><text style="dominant-baseline: middle; font-size: 10.2px;" transform="translate(90.628173828125,34.5)" y="0" x="0" id="text-entity-Review-77c92a79-8cff-50c0-9604-f9135763cccd-attr-1-key" class="er entityLabel">FK</text><rect height="21" width="34.524078369140625" y="45" x="0" class="er attributeBoxEven"/><text style="dominant-baseline: middle; font-size: 10.2px;" transform="translate(5,55.5)" y="0" x="0" id="text-entity-Review-77c92a79-8cff-50c0-9604-f9135763cccd-attr-2-type" class="er entityLabel">bigint</text><rect height="21" width="51.104095458984375" y="45" x="34.524078369140625" class="er attributeBoxEven"/><text style="dominant-baseline: middle; font-size: 10.2px;" transform="translate(39.524078369140625,55.5)" y="0" x="0" id="text-entity-Review-77c92a79-8cff-50c0-9604-f9135763cccd-attr-2-name" class="er entityLabel">movie_id</text><rect height="21" width="23.222930908203125" y="45" x="85.628173828125" class="er attributeBoxEven"/><text style="dominant-baseline: middle; font-size: 10.2px;" transform="translate(90.628173828125,55.5)" y="0" x="0" id="text-entity-Review-77c92a79-8cff-50c0-9604-f9135763cccd-attr-2-key" class="er entityLabel">FK</text></g><g transform="translate(224.19027709960938,20 )" id="entity-Movie-93b6ae32-1458-5e5b-9acc-4d229ba6aaf7"><rect height="66" width="100" y="0" x="0" class="er entityBox"/><text style="dominant-baseline: middle; text-anchor: middle; font-size: 12px;" transform="translate(50,12)" y="0" x="0" id="text-entity-Movie-93b6ae32-1458-5e5b-9acc-4d229ba6aaf7" class="er entityLabel">Movie</text><rect height="21" width="46.390787760416664" y="24" x="0" class="er attributeBoxOdd"/><text style="dominant-baseline: middle; font-size: 10.2px;" transform="translate(5,34.5)" y="0" x="0" id="text-entity-Movie-93b6ae32-1458-5e5b-9acc-4d229ba6aaf7-attr-1-type" class="er entityLabel">bigint</text><rect height="21" width="28.000864664713543" y="24" x="46.390787760416664" class="er attributeBoxOdd"/><text style="dominant-baseline: middle; font-size: 10.2px;" transform="translate(51.390787760416664,34.5)" y="0" x="0" id="text-entity-Movie-93b6ae32-1458-5e5b-9acc-4d229ba6aaf7-attr-1-name" class="er entityLabel">id</text><rect height="21" width="25.608347574869793" y="24" x="74.3916524251302" class="er attributeBoxOdd"/><text style="dominant-baseline: middle; font-size: 10.2px;" transform="translate(79.3916524251302,34.5)" y="0" x="0" id="text-entity-Movie-93b6ae32-1458-5e5b-9acc-4d229ba6aaf7-attr-1-key" class="er entityLabel">PK</text><rect height="21" width="46.390787760416664" y="45" x="0" class="er attributeBoxEven"/><text style="dominant-baseline: middle; font-size: 10.2px;" transform="translate(5,55.5)" y="0" x="0" id="text-entity-Movie-93b6ae32-1458-5e5b-9acc-4d229ba6aaf7-attr-2-type" class="er entityLabel">varchar</text><rect height="21" width="28.000864664713543" y="45" x="46.390787760416664" class="er attributeBoxEven"/><text style="dominant-baseline: middle; font-size: 10.2px;" transform="translate(51.390787760416664,55.5)" y="0" x="0" id="text-entity-Movie-93b6ae32-1458-5e5b-9acc-4d229ba6aaf7-attr-2-name" class="er entityLabel">title</text><rect height="21" width="25.608347574869793" y="45" x="74.3916524251302" class="er attributeBoxEven"/><text style="dominant-baseline: middle; font-size: 10.2px;" transform="translate(79.3916524251302,55.5)" y="0" x="0" id="text-entity-Movie-93b6ae32-1458-5e5b-9acc-4d229ba6aaf7-attr-2-key" class="er entityLabel"/></g><rect height="0" width="0" y="144.07904052734375" x="87.8948974609375" class="er relationshipLabelBox"/><text style="text-anchor: middle; dominant-baseline: middle; font-size: 12px;" y="144.07904052734375" x="87.8948974609375" id="rel1" class="er relationshipLabel"/><rect height="0" width="0" y="144.0792236328125" x="258.39031982421875" class="er relationshipLabelBox"/><text style="text-anchor: middle; dominant-baseline: middle; font-size: 12px;" y="144.0792236328125" x="258.39031982421875" id="rel2" class="er relationshipLabel"/></svg>